<svg width="1920" height="226" viewBox="0 0 1920 226" fill="none" xmlns="http://www.w3.org/2000/svg">
<path d="M-146.159 39.12C-133.679 37.68 -122.039 32.88 -122.039 19.92C-122.039 3.12 -141.959 -5.72205e-06 -157.439 -5.72205e-06H-182.519V84H-152.279C-136.679 84 -116.759 78.36 -116.759 61.44C-116.759 46.8 -131.999 40.56 -146.159 39.12ZM-157.439 0.959996C-137.759 0.959996 -131.399 9.36 -131.399 19.92C-131.399 30.6 -137.759 38.88 -157.439 38.88H-173.159V0.959996H-157.439ZM-152.279 83.16H-173.159V39.84H-152.279C-132.479 39.84 -126.239 50.88 -126.239 61.44C-126.239 72.12 -132.479 83.16 -152.279 83.16ZM-80.9153 26.28C-90.5153 26.28 -96.2753 31.32 -98.1953 37.8L-97.3553 38.16C-95.4353 31.8 -89.7953 27.48 -81.9953 27.48C-73.4753 27.48 -68.5553 35.52 -68.5553 44.64V55.8C-75.9953 40.44 -110.795 41.64 -110.795 66.12C-110.795 76.68 -100.715 84.6 -89.3153 84.6C-77.1953 84.6 -70.7153 75.96 -68.5553 67.2L-60.3953 84H-59.0753V46.2C-59.0753 31.44 -70.9553 26.28 -80.9153 26.28ZM-86.6753 82.32C-94.9553 82.32 -102.155 75 -102.155 65.04C-102.155 41.52 -73.2353 44.28 -68.5553 58.08V60.96C-69.0353 71.28 -75.5153 82.32 -86.6753 82.32ZM3.32188 47.28C1.76188 33 -6.51812 26.28 -16.3581 26.28C-31.9581 26.28 -36.0381 42.48 -37.5981 56.04V27.12H-47.0781V84H-37.5981V66.24C-37.5981 56.16 -35.1981 30.96 -21.7581 28.44C-11.4381 26.4 -6.99812 36.6 -6.03812 45.6C-5.43812 51.72 -2.91812 80.04 -2.55812 84H7.04188C6.44188 79.56 4.52188 59.04 3.32188 47.28ZM41.8719 44.4L61.3119 27.12H59.9919L26.0319 57.24V-5.72205e-06H16.6719V84H26.0319V58.32L35.7519 49.68L56.7519 84H66.4719L41.8719 44.4ZM152.97 47.28C151.41 33 143.13 26.28 133.29 26.28C117.69 26.28 113.61 42.48 112.05 56.04V-5.72205e-06H102.57V84H112.05V66.12C112.05 56.04 114.45 30.96 127.89 28.44C138.21 26.4 142.65 36.6 143.61 45.6C144.21 51.72 146.61 80.04 147.09 84H156.57C156.09 79.56 154.17 59.04 152.97 47.28ZM194.283 26.28C179.163 26.28 162.603 37.2 162.603 55.44C162.603 73.68 179.163 84.6 194.283 84.6C209.403 84.6 225.963 73.68 225.963 55.44C225.963 37.2 209.403 26.28 194.283 26.28ZM194.283 83.64C182.403 83.64 172.443 71.28 172.443 55.44C172.443 39.6 182.403 27.24 194.283 27.24C206.163 27.24 216.123 39.6 216.123 55.44C216.123 71.28 206.163 83.64 194.283 83.64ZM269.114 62.76C269.114 72.72 265.634 82.08 257.594 82.44C248.114 82.92 246.194 75.72 246.194 65.28V27.12H260.234V26.28H246.194V9.84H244.874L236.714 26.28H229.634V27.12H236.714V63.6C236.714 77.64 243.314 84.6 253.874 84.6C266.594 84.6 269.954 74.16 269.954 62.76H269.114ZM334.003 67.32C332.083 70.8 325.603 81.24 313.843 82.44C301.603 83.76 291.523 77.04 287.083 64.44C285.043 58.68 284.803 51.6 286.243 45.24H333.403C331.723 30.72 317.683 25.68 307.603 26.28C294.403 26.88 275.443 35.88 276.043 56.76C276.523 76.44 294.043 85.32 309.643 84.6C323.923 83.88 331.003 74.52 334.843 67.68L334.003 67.32ZM302.083 27.6C313.843 25.44 323.203 33.84 324.763 44.28H286.483C288.763 36.12 293.923 29.16 302.083 27.6ZM343.273 -5.72205e-06V84H352.753V-5.72205e-06H343.273ZM1194.58 39.12C1207.06 37.68 1218.7 32.88 1218.7 19.92C1218.7 3.12 1198.78 -5.72205e-06 1183.3 -5.72205e-06H1158.22V84H1188.46C1204.06 84 1223.98 78.36 1223.98 61.44C1223.98 46.8 1208.74 40.56 1194.58 39.12ZM1183.3 0.959996C1202.98 0.959996 1209.34 9.36 1209.34 19.92C1209.34 30.6 1202.98 38.88 1183.3 38.88H1167.58V0.959996H1183.3ZM1188.46 83.16H1167.58V39.84H1188.46C1208.26 39.84 1214.5 50.88 1214.5 61.44C1214.5 72.12 1208.26 83.16 1188.46 83.16ZM1259.83 26.28C1250.23 26.28 1244.47 31.32 1242.55 37.8L1243.39 38.16C1245.31 31.8 1250.95 27.48 1258.75 27.48C1267.27 27.48 1272.19 35.52 1272.19 44.64V55.8C1264.75 40.44 1229.95 41.64 1229.95 66.12C1229.95 76.68 1240.03 84.6 1251.43 84.6C1263.55 84.6 1270.03 75.96 1272.19 67.2L1280.35 84H1281.67V46.2C1281.67 31.44 1269.79 26.28 1259.83 26.28ZM1254.07 82.32C1245.79 82.32 1238.59 75 1238.59 65.04C1238.59 41.52 1267.51 44.28 1272.19 58.08V60.96C1271.71 71.28 1265.23 82.32 1254.07 82.32ZM1344.06 47.28C1342.5 33 1334.22 26.28 1324.38 26.28C1308.78 26.28 1304.7 42.48 1303.14 56.04V27.12H1293.66V84H1303.14V66.24C1303.14 56.16 1305.54 30.96 1318.98 28.44C1329.3 26.4 1333.74 36.6 1334.7 45.6C1335.3 51.72 1337.82 80.04 1338.18 84H1347.78C1347.18 79.56 1345.26 59.04 1344.06 47.28ZM1382.61 44.4L1402.05 27.12H1400.73L1366.77 57.24V-5.72205e-06H1357.41V84H1366.77V58.32L1376.49 49.68L1397.49 84H1407.21L1382.61 44.4ZM1493.71 47.28C1492.15 33 1483.87 26.28 1474.03 26.28C1458.43 26.28 1454.35 42.48 1452.79 56.04V-5.72205e-06H1443.31V84H1452.79V66.12C1452.79 56.04 1455.19 30.96 1468.63 28.44C1478.95 26.4 1483.39 36.6 1484.35 45.6C1484.95 51.72 1487.35 80.04 1487.83 84H1497.31C1496.83 79.56 1494.91 59.04 1493.71 47.28ZM1535.03 26.28C1519.91 26.28 1503.35 37.2 1503.35 55.44C1503.35 73.68 1519.91 84.6 1535.03 84.6C1550.15 84.6 1566.71 73.68 1566.71 55.44C1566.71 37.2 1550.15 26.28 1535.03 26.28ZM1535.03 83.64C1523.15 83.64 1513.19 71.28 1513.19 55.44C1513.19 39.6 1523.15 27.24 1535.03 27.24C1546.91 27.24 1556.87 39.6 1556.87 55.44C1556.87 71.28 1546.91 83.64 1535.03 83.64ZM1609.86 62.76C1609.86 72.72 1606.38 82.08 1598.34 82.44C1588.86 82.92 1586.94 75.72 1586.94 65.28V27.12L1600.98 27.12V26.28L1586.94 26.28V9.84H1585.62L1577.46 26.28H1570.38V27.12H1577.46V63.6C1577.46 77.64 1584.06 84.6 1594.62 84.6C1607.34 84.6 1610.7 74.16 1610.7 62.76H1609.86ZM1674.75 67.32C1672.83 70.8 1666.35 81.24 1654.59 82.44C1642.35 83.76 1632.27 77.04 1627.83 64.44C1625.79 58.68 1625.55 51.6 1626.99 45.24H1674.15C1672.47 30.72 1658.43 25.68 1648.35 26.28C1635.15 26.88 1616.19 35.88 1616.79 56.76C1617.27 76.44 1634.79 85.32 1650.39 84.6C1664.67 83.88 1671.75 74.52 1675.59 67.68L1674.75 67.32ZM1642.83 27.6C1654.59 25.44 1663.95 33.84 1665.51 44.28H1627.23C1629.51 36.12 1634.67 29.16 1642.83 27.6ZM1684.02 -5.72205e-06V84H1693.5V-5.72205e-06H1684.02ZM1770.68 39.12C1783.16 37.68 1794.8 32.88 1794.8 19.92C1794.8 3.12 1774.88 -5.72205e-06 1759.4 -5.72205e-06H1734.32V84H1764.56C1780.16 84 1800.08 78.36 1800.08 61.44C1800.08 46.8 1784.84 40.56 1770.68 39.12ZM1759.4 0.959996C1779.08 0.959996 1785.44 9.36 1785.44 19.92C1785.44 30.6 1779.08 38.88 1759.4 38.88H1743.68V0.959996H1759.4ZM1764.56 83.16H1743.68V39.84H1764.56C1784.36 39.84 1790.6 50.88 1790.6 61.44C1790.6 72.12 1784.36 83.16 1764.56 83.16ZM1835.92 26.28C1826.32 26.28 1820.56 31.32 1818.64 37.8L1819.48 38.16C1821.4 31.8 1827.04 27.48 1834.84 27.48C1843.36 27.48 1848.28 35.52 1848.28 44.64V55.8C1840.84 40.44 1806.04 41.64 1806.04 66.12C1806.04 76.68 1816.12 84.6 1827.52 84.6C1839.64 84.6 1846.12 75.96 1848.28 67.2L1856.44 84H1857.76V46.2C1857.76 31.44 1845.88 26.28 1835.92 26.28ZM1830.16 82.32C1821.88 82.32 1814.68 75 1814.68 65.04C1814.68 41.52 1843.6 44.28 1848.28 58.08V60.96C1847.8 71.28 1841.32 82.32 1830.16 82.32ZM1920.16 47.28C1918.6 33 1910.32 26.28 1900.48 26.28C1884.88 26.28 1880.8 42.48 1879.24 56.04V27.12H1869.76V84H1879.24V66.24C1879.24 56.16 1881.64 30.96 1895.08 28.44C1905.4 26.4 1909.84 36.6 1910.8 45.6C1911.4 51.72 1913.92 80.04 1914.28 84H1923.88C1923.28 79.56 1921.36 59.04 1920.16 47.28ZM1958.71 44.4L1978.15 27.12H1976.83L1942.87 57.24V-5.72205e-06H1933.51V84H1942.87V58.32L1952.59 49.68L1973.59 84L1983.31 84L1958.71 44.4ZM2069.81 47.28C2068.25 33 2059.97 26.28 2050.13 26.28C2034.53 26.28 2030.45 42.48 2028.89 56.04V-5.72205e-06H2019.41V84H2028.89V66.12C2028.89 56.04 2031.29 30.96 2044.73 28.44C2055.05 26.4 2059.49 36.6 2060.45 45.6C2061.05 51.72 2063.45 80.04 2063.93 84H2073.41C2072.93 79.56 2071.01 59.04 2069.81 47.28ZM2111.12 26.28C2096 26.28 2079.44 37.2 2079.44 55.44C2079.44 73.68 2096 84.6 2111.12 84.6C2126.24 84.6 2142.8 73.68 2142.8 55.44C2142.8 37.2 2126.24 26.28 2111.12 26.28ZM2111.12 83.64C2099.24 83.64 2089.28 71.28 2089.28 55.44C2089.28 39.6 2099.24 27.24 2111.12 27.24C2123 27.24 2132.96 39.6 2132.96 55.44C2132.96 71.28 2123 83.64 2111.12 83.64ZM2185.95 62.76C2185.95 72.72 2182.47 82.08 2174.43 82.44C2164.95 82.92 2163.03 75.72 2163.03 65.28V27.12H2177.07V26.28H2163.03V9.84H2161.71L2153.55 26.28H2146.47V27.12H2153.55V63.6C2153.55 77.64 2160.15 84.6 2170.71 84.6C2183.43 84.6 2186.79 74.16 2186.79 62.76H2185.95ZM2250.84 67.32C2248.92 70.8 2242.44 81.24 2230.68 82.44C2218.44 83.76 2208.36 77.04 2203.92 64.44C2201.88 58.68 2201.64 51.6 2203.08 45.24H2250.24C2248.56 30.72 2234.52 25.68 2224.44 26.28C2211.24 26.88 2192.28 35.88 2192.88 56.76C2193.36 76.44 2210.88 85.32 2226.48 84.6C2240.76 83.88 2247.84 74.52 2251.68 67.68L2250.84 67.32ZM2218.92 27.6C2230.68 25.44 2240.04 33.84 2241.6 44.28H2203.32C2205.6 36.12 2210.76 29.16 2218.92 27.6ZM2260.11 -5.72205e-06V84H2269.59V-5.72205e-06H2260.11ZM-284.44 179.12C-271.96 177.68 -260.32 172.88 -260.32 159.92C-260.32 143.12 -280.24 140 -295.72 140H-320.8V224H-290.56C-274.96 224 -255.04 218.36 -255.04 201.44C-255.04 186.8 -270.28 180.56 -284.44 179.12ZM-295.72 140.96C-276.04 140.96 -269.68 149.36 -269.68 159.92C-269.68 170.6 -276.04 178.88 -295.72 178.88H-311.44V140.96H-295.72ZM-290.56 223.16H-311.44V179.84H-290.56C-270.76 179.84 -264.52 190.88 -264.52 201.44C-264.52 212.12 -270.76 223.16 -290.56 223.16ZM-219.197 166.28C-228.797 166.28 -234.557 171.32 -236.477 177.8L-235.637 178.16C-233.717 171.8 -228.077 167.48 -220.277 167.48C-211.757 167.48 -206.837 175.52 -206.837 184.64V195.8C-214.277 180.44 -249.077 181.64 -249.077 206.12C-249.077 216.68 -238.997 224.6 -227.597 224.6C-215.477 224.6 -208.997 215.96 -206.837 207.2L-198.677 224H-197.357V186.2C-197.357 171.44 -209.237 166.28 -219.197 166.28ZM-224.957 222.32C-233.237 222.32 -240.437 215 -240.437 205.04C-240.437 181.52 -211.517 184.28 -206.837 198.08V200.96C-207.317 211.28 -213.797 222.32 -224.957 222.32ZM-134.959 187.28C-136.519 173 -144.799 166.28 -154.639 166.28C-170.239 166.28 -174.319 182.48 -175.879 196.04V167.12H-185.359V224H-175.879V206.24C-175.879 196.16 -173.479 170.96 -160.039 168.44C-149.719 166.4 -145.279 176.6 -144.319 185.6C-143.719 191.72 -141.199 220.04 -140.839 224H-131.239C-131.839 219.56 -133.759 199.04 -134.959 187.28ZM-96.4094 184.4L-76.9694 167.12H-78.2894L-112.249 197.24V140H-121.609V224H-112.249V198.32L-102.529 189.68L-81.5294 224H-71.8094L-96.4094 184.4ZM14.6891 187.28C13.1291 173 4.84906 166.28 -4.99093 166.28C-20.5909 166.28 -24.6709 182.48 -26.2309 196.04V140H-35.7109V224H-26.2309V206.12C-26.2309 196.04 -23.8309 170.96 -10.3909 168.44C-0.0709372 166.4 4.36906 176.6 5.32906 185.6C5.92906 191.72 8.32907 220.04 8.80907 224H18.2891C17.8091 219.56 15.8891 199.04 14.6891 187.28ZM56.0019 166.28C40.8819 166.28 24.3219 177.2 24.3219 195.44C24.3219 213.68 40.8819 224.6 56.0019 224.6C71.1219 224.6 87.6819 213.68 87.6819 195.44C87.6819 177.2 71.1219 166.28 56.0019 166.28ZM56.0019 223.64C44.1219 223.64 34.1619 211.28 34.1619 195.44C34.1619 179.6 44.1219 167.24 56.0019 167.24C67.8819 167.24 77.8419 179.6 77.8419 195.44C77.8419 211.28 67.8819 223.64 56.0019 223.64ZM130.833 202.76C130.833 212.72 127.353 222.08 119.313 222.44C109.833 222.92 107.913 215.72 107.913 205.28V167.12H121.953V166.28H107.913V149.84H106.593L98.4331 166.28H91.3531V167.12H98.4331V203.6C98.4331 217.64 105.033 224.6 115.593 224.6C128.313 224.6 131.673 214.16 131.673 202.76H130.833ZM195.722 207.32C193.802 210.8 187.322 221.24 175.562 222.44C163.322 223.76 153.242 217.04 148.802 204.44C146.762 198.68 146.522 191.6 147.962 185.24L195.122 185.24C193.442 170.72 179.402 165.68 169.322 166.28C156.122 166.88 137.162 175.88 137.762 196.76C138.242 216.44 155.762 225.32 171.362 224.6C185.642 223.88 192.722 214.52 196.562 207.68L195.722 207.32ZM163.802 167.6C175.562 165.44 184.922 173.84 186.482 184.28L148.202 184.28C150.482 176.12 155.642 169.16 163.802 167.6ZM204.992 140V224H214.472V140H204.992ZM319.31 179.12C331.79 177.68 343.43 172.88 343.43 159.92C343.43 143.12 323.51 140 308.03 140H282.95V224H313.19C328.79 224 348.71 218.36 348.71 201.44C348.71 186.8 333.47 180.56 319.31 179.12ZM308.03 140.96C327.71 140.96 334.07 149.36 334.07 159.92C334.07 170.6 327.71 178.88 308.03 178.88H292.31V140.96H308.03ZM313.19 223.16H292.31V179.84H313.19C332.99 179.84 339.23 190.88 339.23 201.44C339.23 212.12 332.99 223.16 313.19 223.16ZM384.553 166.28C374.953 166.28 369.193 171.32 367.273 177.8L368.113 178.16C370.033 171.8 375.673 167.48 383.473 167.48C391.993 167.48 396.913 175.52 396.913 184.64V195.8C389.473 180.44 354.673 181.64 354.673 206.12C354.673 216.68 364.753 224.6 376.153 224.6C388.273 224.6 394.753 215.96 396.913 207.2L405.073 224H406.393V186.2C406.393 171.44 394.513 166.28 384.553 166.28ZM378.793 222.32C370.513 222.32 363.313 215 363.313 205.04C363.313 181.52 392.233 184.28 396.913 198.08V200.96C396.433 211.28 389.953 222.32 378.793 222.32ZM468.791 187.28C467.231 173 458.951 166.28 449.111 166.28C433.511 166.28 429.431 182.48 427.871 196.04V167.12H418.391V224H427.871V206.24C427.871 196.16 430.271 170.96 443.711 168.44C454.031 166.4 458.471 176.6 459.431 185.6C460.031 191.72 462.551 220.04 462.911 224H472.511C471.911 219.56 469.991 199.04 468.791 187.28ZM507.341 184.4L526.781 167.12H525.461L491.501 197.24V140H482.141V224H491.501V198.32L501.221 189.68L522.221 224H531.941L507.341 184.4ZM618.439 187.28C616.879 173 608.599 166.28 598.759 166.28C583.159 166.28 579.079 182.48 577.519 196.04V140H568.039V224H577.519V206.12C577.519 196.04 579.919 170.96 593.359 168.44C603.679 166.4 608.119 176.6 609.079 185.6C609.679 191.72 612.079 220.04 612.559 224H622.039C621.559 219.56 619.639 199.04 618.439 187.28ZM659.752 166.28C644.632 166.28 628.072 177.2 628.072 195.44C628.072 213.68 644.632 224.6 659.752 224.6C674.872 224.6 691.432 213.68 691.432 195.44C691.432 177.2 674.872 166.28 659.752 166.28ZM659.752 223.64C647.872 223.64 637.912 211.28 637.912 195.44C637.912 179.6 647.872 167.24 659.752 167.24C671.632 167.24 681.592 179.6 681.592 195.44C681.592 211.28 671.632 223.64 659.752 223.64ZM734.583 202.76C734.583 212.72 731.103 222.08 723.063 222.44C713.583 222.92 711.663 215.72 711.663 205.28V167.12H725.703V166.28H711.663V149.84H710.343L702.183 166.28H695.103V167.12H702.183V203.6C702.183 217.64 708.783 224.6 719.343 224.6C732.063 224.6 735.423 214.16 735.423 202.76H734.583ZM799.472 207.32C797.552 210.8 791.072 221.24 779.312 222.44C767.072 223.76 756.992 217.04 752.552 204.44C750.512 198.68 750.272 191.6 751.712 185.24H798.872C797.192 170.72 783.152 165.68 773.072 166.28C759.872 166.88 740.912 175.88 741.512 196.76C741.992 216.44 759.512 225.32 775.112 224.6C789.392 223.88 796.472 214.52 800.312 207.68L799.472 207.32ZM767.552 167.6C779.312 165.44 788.672 173.84 790.232 184.28H751.952C754.232 176.12 759.392 169.16 767.552 167.6ZM808.742 140V224H818.222V140H808.742ZM895.404 179.12C907.884 177.68 919.524 172.88 919.524 159.92C919.524 143.12 899.604 140 884.124 140H859.044V224H889.284C904.884 224 924.804 218.36 924.804 201.44C924.804 186.8 909.564 180.56 895.404 179.12ZM884.124 140.96C903.804 140.96 910.164 149.36 910.164 159.92C910.164 170.6 903.804 178.88 884.124 178.88H868.404V140.96H884.124ZM889.284 223.16H868.404V179.84H889.284C909.084 179.84 915.324 190.88 915.324 201.44C915.324 212.12 909.084 223.16 889.284 223.16ZM960.647 166.28C951.047 166.28 945.287 171.32 943.367 177.8L944.207 178.16C946.127 171.8 951.767 167.48 959.567 167.48C968.087 167.48 973.007 175.52 973.007 184.64V195.8C965.567 180.44 930.767 181.64 930.767 206.12C930.767 216.68 940.847 224.6 952.247 224.6C964.367 224.6 970.847 215.96 973.007 207.2L981.167 224H982.487V186.2C982.487 171.44 970.607 166.28 960.647 166.28ZM954.887 222.32C946.607 222.32 939.407 215 939.407 205.04C939.407 181.52 968.327 184.28 973.007 198.08V200.96C972.527 211.28 966.047 222.32 954.887 222.32ZM1044.88 187.28C1043.32 173 1035.04 166.28 1025.2 166.28C1009.6 166.28 1005.52 182.48 1003.96 196.04V167.12H994.484V224H1003.96V206.24C1003.96 196.16 1006.36 170.96 1019.8 168.44C1030.12 166.4 1034.56 176.6 1035.52 185.6C1036.12 191.72 1038.64 220.04 1039 224H1048.6C1048 219.56 1046.08 199.04 1044.88 187.28ZM1083.43 184.4L1102.87 167.12H1101.55L1067.59 197.24V140H1058.23V224H1067.59V198.32L1077.31 189.68L1098.31 224H1108.03L1083.43 184.4ZM1222.19 187.28C1220.63 173 1212.35 166.28 1202.51 166.28C1186.91 166.28 1182.83 182.48 1181.27 196.04V140H1171.79V224H1181.27V206.12C1181.27 196.04 1183.67 170.96 1197.11 168.44C1207.43 166.4 1211.87 176.6 1212.83 185.6C1213.43 191.72 1215.83 220.04 1216.31 224H1225.79C1225.31 219.56 1223.39 199.04 1222.19 187.28ZM1263.5 166.28C1248.38 166.28 1231.82 177.2 1231.82 195.44C1231.82 213.68 1248.38 224.6 1263.5 224.6C1278.62 224.6 1295.18 213.68 1295.18 195.44C1295.18 177.2 1278.62 166.28 1263.5 166.28ZM1263.5 223.64C1251.62 223.64 1241.66 211.28 1241.66 195.44C1241.66 179.6 1251.62 167.24 1263.5 167.24C1275.38 167.24 1285.34 179.6 1285.34 195.44C1285.34 211.28 1275.38 223.64 1263.5 223.64ZM1338.33 202.76C1338.33 212.72 1334.85 222.08 1326.81 222.44C1317.33 222.92 1315.41 215.72 1315.41 205.28V167.12H1329.45V166.28H1315.41V149.84H1314.09L1305.93 166.28H1298.85V167.12H1305.93V203.6C1305.93 217.64 1312.53 224.6 1323.09 224.6C1335.81 224.6 1339.17 214.16 1339.17 202.76H1338.33ZM1403.22 207.32C1401.3 210.8 1394.82 221.24 1383.06 222.44C1370.82 223.76 1360.74 217.04 1356.3 204.44C1354.26 198.68 1354.02 191.6 1355.46 185.24H1402.62C1400.94 170.72 1386.9 165.68 1376.82 166.28C1363.62 166.88 1344.66 175.88 1345.26 196.76C1345.74 216.44 1363.26 225.32 1378.86 224.6C1393.14 223.88 1400.22 214.52 1404.06 207.68L1403.22 207.32ZM1371.3 167.6C1383.06 165.44 1392.42 173.84 1393.98 184.28H1355.7C1357.98 176.12 1363.14 169.16 1371.3 167.6ZM1412.49 140V224H1421.97V140H1412.49ZM1499.15 179.12C1511.63 177.68 1523.27 172.88 1523.27 159.92C1523.27 143.12 1503.35 140 1487.87 140H1462.79V224H1493.03C1508.63 224 1528.55 218.36 1528.55 201.44C1528.55 186.8 1513.31 180.56 1499.15 179.12ZM1487.87 140.96C1507.55 140.96 1513.91 149.36 1513.91 159.92C1513.91 170.6 1507.55 178.88 1487.87 178.88H1472.15V140.96H1487.87ZM1493.03 223.16H1472.15V179.84H1493.03C1512.83 179.84 1519.07 190.88 1519.07 201.44C1519.07 212.12 1512.83 223.16 1493.03 223.16ZM1564.4 166.28C1554.8 166.28 1549.04 171.32 1547.12 177.8L1547.96 178.16C1549.88 171.8 1555.52 167.48 1563.32 167.48C1571.84 167.48 1576.76 175.52 1576.76 184.64V195.8C1569.32 180.44 1534.52 181.64 1534.52 206.12C1534.52 216.68 1544.6 224.6 1556 224.6C1568.12 224.6 1574.6 215.96 1576.76 207.2L1584.92 224H1586.24V186.2C1586.24 171.44 1574.36 166.28 1564.4 166.28ZM1558.64 222.32C1550.36 222.32 1543.16 215 1543.16 205.04C1543.16 181.52 1572.08 184.28 1576.76 198.08V200.96C1576.28 211.28 1569.8 222.32 1558.64 222.32ZM1648.63 187.28C1647.07 173 1638.79 166.28 1628.95 166.28C1613.35 166.28 1609.27 182.48 1607.71 196.04V167.12H1598.23V224H1607.71V206.24C1607.71 196.16 1610.11 170.96 1623.55 168.44C1633.87 166.4 1638.31 176.6 1639.27 185.6C1639.87 191.72 1642.39 220.04 1642.75 224H1652.35C1651.75 219.56 1649.83 199.04 1648.63 187.28ZM1687.18 184.4L1706.62 167.12H1705.3L1671.34 197.24V140H1661.98V224H1671.34V198.32L1681.06 189.68L1702.06 224H1711.78L1687.18 184.4ZM1798.28 187.28C1796.72 173 1788.44 166.28 1778.6 166.28C1763 166.28 1758.92 182.48 1757.36 196.04V140H1747.88V224H1757.36V206.12C1757.36 196.04 1759.76 170.96 1773.2 168.44C1783.52 166.4 1787.96 176.6 1788.92 185.6C1789.52 191.72 1791.92 220.04 1792.4 224H1801.88C1801.4 219.56 1799.48 199.04 1798.28 187.28ZM1839.6 166.28C1824.48 166.28 1807.92 177.2 1807.92 195.44C1807.92 213.68 1824.48 224.6 1839.6 224.6C1854.72 224.6 1871.28 213.68 1871.28 195.44C1871.28 177.2 1854.72 166.28 1839.6 166.28ZM1839.6 223.64C1827.72 223.64 1817.76 211.28 1817.76 195.44C1817.76 179.6 1827.72 167.24 1839.6 167.24C1851.48 167.24 1861.44 179.6 1861.44 195.44C1861.44 211.28 1851.48 223.64 1839.6 223.64ZM1914.43 202.76C1914.43 212.72 1910.95 222.08 1902.91 222.44C1893.43 222.92 1891.51 215.72 1891.51 205.28V167.12H1905.55V166.28H1891.51V149.84H1890.19L1882.03 166.28H1874.95V167.12H1882.03V203.6C1882.03 217.64 1888.63 224.6 1899.19 224.6C1911.91 224.6 1915.27 214.16 1915.27 202.76H1914.43ZM1979.32 207.32C1977.4 210.8 1970.92 221.24 1959.16 222.44C1946.92 223.76 1936.84 217.04 1932.4 204.44C1930.36 198.68 1930.12 191.6 1931.56 185.24H1978.72C1977.04 170.72 1963 165.68 1952.92 166.28C1939.72 166.88 1920.76 175.88 1921.36 196.76C1921.84 216.44 1939.36 225.32 1954.96 224.6C1969.24 223.88 1976.32 214.52 1980.16 207.68L1979.32 207.32ZM1947.4 167.6C1959.16 165.44 1968.52 173.84 1970.08 184.28H1931.8C1934.08 176.12 1939.24 169.16 1947.4 167.6ZM1988.59 140V224H1998.07V140H1988.59Z" fill="#FFFCF6" fill-opacity="0.12"/>
<path d="M429.935 39.12C442.415 37.68 454.055 32.88 454.055 19.92C454.055 3.12 434.135 -5.72205e-06 418.655 -5.72205e-06H393.575V84H423.815C439.415 84 459.335 78.36 459.335 61.44C459.335 46.8 444.095 40.56 429.935 39.12ZM418.655 0.959996C438.335 0.959996 444.695 9.36 444.695 19.92C444.695 30.6 438.335 38.88 418.655 38.88H402.935V0.959996H418.655ZM423.815 83.16H402.935V39.84H423.815C443.615 39.84 449.855 50.88 449.855 61.44C449.855 72.12 443.615 83.16 423.815 83.16ZM495.178 26.28C485.578 26.28 479.818 31.32 477.898 37.8L478.738 38.16C480.658 31.8 486.298 27.48 494.098 27.48C502.618 27.48 507.538 35.52 507.538 44.64V55.8C500.098 40.44 465.298 41.64 465.298 66.12C465.298 76.68 475.378 84.6 486.778 84.6C498.898 84.6 505.378 75.96 507.538 67.2L515.698 84H517.018V46.2C517.018 31.44 505.138 26.28 495.178 26.28ZM489.418 82.32C481.138 82.32 473.938 75 473.938 65.04C473.938 41.52 502.858 44.28 507.538 58.08V60.96C507.058 71.28 500.578 82.32 489.418 82.32ZM579.416 47.28C577.856 33 569.576 26.28 559.736 26.28C544.136 26.28 540.056 42.48 538.496 56.04V27.12H529.016V84H538.496V66.24C538.496 56.16 540.896 30.96 554.336 28.44C564.656 26.4 569.096 36.6 570.056 45.6C570.656 51.72 573.176 80.04 573.536 84H583.136C582.536 79.56 580.616 59.04 579.416 47.28ZM617.966 44.4L637.406 27.12H636.086L602.126 57.24V-5.72205e-06H592.766V84H602.126V58.32L611.846 49.68L632.846 84H642.566L617.966 44.4ZM652.208 86.28V87.24H698.408V86.28H652.208ZM712.794 86.28V87.24H758.994V86.28H712.794ZM822.58 47.28C821.02 33 812.74 26.28 802.9 26.28C787.3 26.28 783.22 42.48 781.66 56.04V-5.72205e-06H772.18V84H781.66V66.12C781.66 56.04 784.06 30.96 797.5 28.44C807.82 26.4 812.26 36.6 813.22 45.6C813.82 51.72 816.22 80.04 816.7 84H826.18C825.7 79.56 823.78 59.04 822.58 47.28ZM863.893 26.28C848.773 26.28 832.213 37.2 832.213 55.44C832.213 73.68 848.773 84.6 863.893 84.6C879.013 84.6 895.573 73.68 895.573 55.44C895.573 37.2 879.013 26.28 863.893 26.28ZM863.893 83.64C852.013 83.64 842.053 71.28 842.053 55.44C842.053 39.6 852.013 27.24 863.893 27.24C875.773 27.24 885.733 39.6 885.733 55.44C885.733 71.28 875.773 83.64 863.893 83.64ZM938.724 62.76C938.724 72.72 935.244 82.08 927.204 82.44C917.724 82.92 915.804 75.72 915.804 65.28V27.12H929.844V26.28H915.804V9.84H914.484L906.324 26.28H899.244V27.12H906.324V63.6C906.324 77.64 912.924 84.6 923.484 84.6C936.204 84.6 939.564 74.16 939.564 62.76H938.724ZM1003.61 67.32C1001.69 70.8 995.213 81.24 983.453 82.44C971.213 83.76 961.133 77.04 956.693 64.44C954.653 58.68 954.413 51.6 955.853 45.24H1003.01C1001.33 30.72 987.293 25.68 977.213 26.28C964.013 26.88 945.053 35.88 945.653 56.76C946.133 76.44 963.653 85.32 979.253 84.6C993.533 83.88 1000.61 74.52 1004.45 67.68L1003.61 67.32ZM971.693 27.6C983.453 25.44 992.813 33.84 994.373 44.28H956.093C958.373 36.12 963.533 29.16 971.693 27.6ZM1012.88 -5.72205e-06V84H1022.36V-5.72205e-06L1012.88 -5.72205e-06ZM1083.77 69.12C1072.97 70.8 1064.09 65.16 1060.85 54.36C1057.49 43.56 1061.33 31.2 1071.77 28.92C1079.81 27.24 1088.93 31.68 1093.49 39.6V32.28C1091.81 30.84 1084.73 27.48 1078.01 27.48C1065.89 27.48 1054.97 37.32 1054.97 49.44C1054.97 61.44 1065.41 71.28 1077.53 71.28C1088.33 71.28 1094.21 65.64 1097.57 58.8L1097.09 58.56C1093.97 64.8 1089.17 68.4 1083.77 69.12ZM1075.85 9.72C1053.53 9.72 1035.53 27.72 1035.53 50.04C1035.53 72.24 1053.53 90.36 1075.85 90.36C1098.05 90.36 1116.17 72.24 1116.17 50.04C1116.17 27.72 1098.05 9.72 1075.85 9.72ZM1075.85 89.28C1054.13 89.28 1036.49 71.64 1036.49 50.04C1036.49 28.32 1054.13 10.68 1075.85 10.68C1097.57 10.68 1115.21 28.32 1115.21 50.04C1115.21 71.64 1097.57 89.28 1075.85 89.28Z" fill="#FFFCF6"/>
</svg>
